<svg id="Layer_1" data-name="Layer 1" xmlns="http://www.w3.org/2000/svg" viewBox="0 0 616.02 838.16"><defs><style>.cls-1,.cls-3{fill:#fff;}.cls-1,.cls-2{fill-rule:evenodd;}.cls-2{fill:#074be7;}</style></defs><title>qup_mana</title><path class="cls-1" d="M630.26,311.8h0c-39-11-77.45-21.85-115.85-32.89h0c-11-3.18-20.7-2.23-30.78.62h0Q443.85,290.77,404.11,302l-5,1.41L224.8,352.81c-11.72,3.31-19.21,9.31-24.26,16-6.07,8-10.13,18.27-8,32.91.89,6,1.32,12.1,2.31,18.09C208.13,500.22,234.62,576.2,272,648.48,322.29,745.86,389.12,830.35,471,903c12.1,10.74,23.13,12.28,32.77,11.38,8.09-.75,16.89-3.84,25.94-12h0c30.49-27.39,59.42-56.28,86.06-87.45,71.44-83.59,125.86-176.9,161.07-281.23A686.91,686.91,0,0,0,807.28,405c2.4-18-1.55-27.21-5.69-33.62s-11.06-14-28.78-19.07c-47.33-13.45-94.66-26.9-142.55-40.48Z" transform="translate(-191.99 -76.47)"/><path class="cls-1" d="M624.11,333.45c-39-11-77.52-21.87-115.95-32.93-6.61-1.9-12.4-1.06-18.43.65h0Q450,312.41,410.25,323.68L230.93,374.46c-6,1.68-9.89,4.52-12.45,7.91-2.95,3.89-4.69,8.92-3.64,16,.87,5.89,1.28,11.85,2.25,17.73C229.94,494.22,255.7,568,292,638.16c49,94.89,114.18,177.21,194,248.05,5.85,5.2,11.08,6.24,15.75,5.81,4.09-.38,8.41-2.2,13-6.31h0a909.29,909.29,0,0,0,84-85.33C668.27,719,721.28,628.16,755.56,526.58A664.71,664.71,0,0,0,785,402c1.31-9.81,0-14.94-2.3-18.44s-6.42-6.9-16-9.63C719.33,360.47,672,347,624.13,333.45Z" transform="translate(-191.99 -76.47)"/><path class="cls-2" d="M624.11,333.45c-39-11-77.52-21.87-115.95-32.93-6.61-1.9-12.4-1.06-18.43.65h0Q450,312.41,410.25,323.68L230.93,374.46c-6,1.68-9.89,4.52-12.45,7.91-2.95,3.89-4.69,8.92-3.64,16,.87,5.89,1.28,11.85,2.25,17.73C229.94,494.22,255.7,568,292,638.16c49,94.89,114.18,177.21,194,248.05,5.85,5.2,11.08,6.24,15.75,5.81,4.09-.38,8.41-2.2,13-6.31h0a909.29,909.29,0,0,0,84-85.33C668.27,719,721.28,628.16,755.56,526.58A664.71,664.71,0,0,0,785,402c1.31-9.81,0-14.94-2.3-18.44s-6.42-6.9-16-9.63C719.33,360.47,672,347,624.13,333.45Z" transform="translate(-191.99 -76.47)"/><path class="cls-3" d="M703.66,675.68l-30.53,46.24H495q-35.39,0-65.49-12.57a156.12,156.12,0,0,1-52.16-35.16,161.83,161.83,0,0,1-34.47-53.54q-12.41-31-12.4-67.75t12.4-67.74a161.88,161.88,0,0,1,34.47-53.55,156.25,156.25,0,0,1,52.16-35.15q30.1-12.57,65.49-12.57,34.92,0,65,12.57a156.15,156.15,0,0,1,52.16,35.15,161.72,161.72,0,0,1,34.47,53.55q12.4,31,12.41,67.74,0,44.7-18.15,80.32a125.56,125.56,0,0,1-35.53,42.46ZM602.46,509.36c-.42-1.33-.86-2.65-1.31-4a120.12,120.12,0,0,0-22.45-39.29,108.93,108.93,0,0,0-35.91-27.24Q521.57,428.68,495,428.68q-26.93,0-48.15,10.19A108.93,108.93,0,0,0,411,466.11a119.92,119.92,0,0,0-22.44,39.29,138.48,138.48,0,0,0-7.17,33.46h.32c14.61,0,17.26-.3,26.28-.37l9.63-23.2c1.33-3.21,2.58-5,4.28-6.09s3.86-1.5,7.45-1.5c2,0,4,0,5.94,0h0a15.12,15.12,0,0,1,4.27.48,4.71,4.71,0,0,1,2.43,1.65,4.35,4.35,0,0,1,.82,2.89,12.65,12.65,0,0,1-1.1,4q-11,26.55-22.07,53.11a36.56,36.56,0,0,0-2,6.24h0c-.37,1.7-.57,2.94.13,3.74s2.3,1,4.51,1.07c7.48.11,15,0,22.89,0h0c3.38-.12,6.26.17,9.51-.38h0a11,11,0,0,0,7.51-4.78,42.94,42.94,0,0,0,4.42-8.62q10.79-25.93,21.56-51.89h0c1.34-3.21,2.59-5,4.28-6.09s3.87-1.49,7.47-1.5h0c2.58,0,5.17,0,7.72,0h0c2.47.06,4.05.94,4.89,2.08s1.24,3,.24,5.43c-8.26,19.85-16.37,39.7-24.92,59.54a49.77,49.77,0,0,1-11.52,16.36h0c-7.59,7.24-16.29,10.8-25.57,11.12-13.94.48-27.74.57-41.3.07-6.06-.22-10.79-2.3-13.86-5.66s-4.61-8.21-3.87-14a62.27,62.27,0,0,1,4.5-15.78l2.63-6.3c-5.51.07-10.39.17-17.79.19A139.37,139.37,0,0,0,388.54,599,120.07,120.07,0,0,0,411,638.26a109,109,0,0,0,35.91,27.23q21.23,10.18,48.15,10.19,26.54,0,47.75-10.19a109,109,0,0,0,35.91-27.23A120.27,120.27,0,0,0,601.15,599a141.32,141.32,0,0,0,7.75-46.78,148.86,148.86,0,0,0-1-17.65c-1.37,3.35-2.76,6.71-4.21,10.06a35.06,35.06,0,0,1-32.27,21.09h0c-13.24,0-26.57.26-39.79.23a3.05,3.05,0,0,0-1.59.22c-.33.21-.46.61-.67,1.12-3.79,9.37-7.73,18.73-11.64,28.1-1.3,3.1-2.4,4.72-3.9,5.68s-3.46,1.3-6.91,1.3h0c-2.8,0-5.6,0-8.39,0-3,0-4.66-.91-5.41-2s-1-2.93.14-5.73h0c4.58-11,9.19-22,13.73-32.94,1.48-3.58,2.63-7.15,4.19-10.72,1.16-2.66,2.42-4.26,4.05-5.26s3.6-1.42,6.56-1.43c12,0,23.89,0,36.19,0,6.11-.2,11.56.43,17.59-.43h0a7.68,7.68,0,0,0,5-2.84h0a19.22,19.22,0,0,0,4-8,8.64,8.64,0,0,0,.34-1.93,1.13,1.13,0,0,0-.13-.78,1.6,1.6,0,0,0-.82-.37,12.1,12.1,0,0,0-2.8-.27h0q-25.05,0-50.14,0a17.61,17.61,0,0,1-4.73-.47,4.92,4.92,0,0,1-2.62-1.73,4.57,4.57,0,0,1-.84-3.07,14.83,14.83,0,0,1,1.23-4.44c.89-2.2,1.73-4.41,2.84-6.6h0a9.72,9.72,0,0,1,9.26-5.59c19,0,38.13-.09,57.11.08a25.59,25.59,0,0,1,9.26,1.6Z" transform="translate(-191.99 -76.47)"/><polygon class="cls-3" points="508.63 21.94 510.61 21.94 510.61 14 517.71 2.56 515.6 2.56 509.66 12.46 509.61 12.46 503.7 2.56 501.56 2.56 508.63 14 508.63 21.94 508.63 21.94"/><polygon class="cls-3" points="534.33 20.21 522.86 20.21 522.86 12.7 532.81 12.7 532.81 10.97 522.86 10.97 522.86 4.3 534.03 4.3 534.03 2.56 520.89 2.56 520.89 21.94 534.33 21.94 534.33 20.21 534.33 20.21"/><path class="cls-3" d="M731.65,80.77h5.26c3.33,0,4.74,1.3,4.74,3.77,0,2.71-1.79,4.09-4.88,4.09h-5.12V80.77Zm0,9.59h5.91c5.18,0,3.39,7.24,4.31,8H744v-.16c-1-.32.48-7.91-4-8.81v0a4.78,4.78,0,0,0,3.63-4.88c0-3.55-2.25-5.47-6.4-5.47h-7.56V98.41h2v-8Z" transform="translate(-191.99 -76.47)"/><path class="cls-3" d="M756.4,96.68h-6.31V89.09h6.8a3.56,3.56,0,0,1,3.8,3.77c0,2.25-1.2,3.82-4.29,3.82Zm-6.31-15.91h6.12c2.5,0,3.69,1.36,3.69,3.33s-1,3.26-3.69,3.26h-6.12V80.77Zm12.65,12.09a4.57,4.57,0,0,0-3.84-4.8v0a4.07,4.07,0,0,0,3.06-4.1c0-3-2.3-4.87-6.13-4.87h-7.72V98.41h8.24c3.85,0,6.39-1.89,6.39-5.55Z" transform="translate(-191.99 -76.47)"/><path class="cls-3" d="M769.34,91.29,773,80.91h.05l3.69,10.38ZM774.16,79h-2.22l-7.23,19.37h2l2-5.36h8.73l1.92,5.36h2.14L774.16,79Z" transform="translate(-191.99 -76.47)"/><polygon class="cls-3" points="520.6 44.38 520.54 44.38 513.99 27.66 511.28 27.66 511.28 47.03 513.25 47.03 513.25 30.45 513.31 30.45 519.68 47.03 521.47 47.03 527.86 30.45 527.92 30.45 527.92 47.03 529.87 47.03 529.87 27.66 527.16 27.66 520.6 44.38 520.6 44.38"/><path class="cls-3" d="M729.71,116.38,733.4,106h.05l3.69,10.38Zm2.6-12.25-7.23,19.38h2l1.95-5.37h8.73l1.92,5.37h2.14l-7.32-19.38Z" transform="translate(-191.99 -76.47)"/><polygon class="cls-3" points="549.04 29.39 555.65 29.39 555.65 47.03 557.6 47.03 557.6 29.39 564.18 29.39 564.18 27.66 549.04 27.66 549.04 29.39 549.04 29.39"/><polygon class="cls-3" points="569.47 37.79 579.41 37.79 579.41 36.06 569.47 36.06 569.47 29.39 580.63 29.39 580.63 27.66 567.49 27.66 567.49 47.03 580.93 47.03 580.93 45.3 569.47 45.3 569.47 37.79 569.47 37.79"/><path class="cls-3" d="M432.57,186l2.26-18h13.81l2.26,18ZM589.9,79.09,578.74,168H564.93l-8.43-67.1c-1.09-9.78-9.57-24.45-28-24.45s-27,14.66-28,24.45L486.08,215.26h-2L469.77,100.94c-1.09-9.77-9.57-24.47-28-24.47s-26.94,14.7-28,24.48L399.36,215.26h-2L383,100.94c-1.08-9.77-9.57-24.47-28-24.47S328.05,91.17,327,101L318.55,168H304.72l-8.42-67.08c-1.09-9.77-9.57-24.47-28-24.47s-26.95,14.7-28,24.48L220.64,257h29.55l11.17-89h13.82l8.42,67.14c1.09,9.78,9.57,24.49,28,24.49s26.95-14.71,28-24.49L348.1,168h13.81l8.42,67.14c1.09,9.77,9.57,24.47,28,24.47s26.94-14.69,28-24.47l2.5-19.9h25.67l2.5,19.87c1.08,9.78,9.57,24.5,28,24.5s26.95-14.76,28-24.54L521.55,168h13.83l8.42,67.08c1.09,9.77,9.57,24.47,28,24.47s26.95-14.7,28-24.48l19.59-156Z" transform="translate(-191.99 -76.47)"/><path class="cls-3" d="M649.4,185.93l2.26-18h0V168h13.81V168h0l2.26,18ZM686.6,101c-1.09-9.78-9.57-24.47-28-24.47s-27,14.67-28,24.45L610.94,257h29.54l5.26-41.84H671.4L676.65,257H706.2L686.6,101Z" transform="translate(-191.99 -76.47)"/></svg>